<?xml version="1.0" encoding="UTF-8" standalone="no"?>
<!-- Created with Inkscape (http://www.inkscape.org/) by Marsupilami -->
<svg xmlns:svg="http://www.w3.org/2000/svg" xmlns="http://www.w3.org/2000/svg" version="1.0" width="1024" height="198" viewBox="0 0 283.46375 54.919624" id="svg3460">
  <defs id="defs3462"/>
  <g transform="translate(-233.268, -504.902)" id="layer1">
    <path d="M 26.90625,0 L 26.90625,0.40625 L 27.375,0.40625 L 27.375,3.375 L 26.875,3.375 L 26.875,3.78125 L 28.40625,3.78125 L 28.4375,3.375 L 27.9375,3.375 L 27.96875,0.40625 L 28.4375,0.4375 L 28.4375,0 L 26.90625,0 z M 29.5625,0.03125 L 29.4375,1 L 29.90625,1.0625 L 29.96875,0.5 L 30.6875,0.59375 L 30.3125,3.53125 L 29.8125,3.46875 L 29.75,3.875 L 31.3125,4.0625 L 31.375,3.65625 L 30.875,3.59375 L 31.25,0.6875 L 31.96875,0.78125 L 31.90625,1.34375 L 32.375,1.40625 L 32.5,0.4375 L 29.5625,0.03125 z M 25.46875,0.0625 L 25,0.09375 L 25.03125,0.375 C 24.7625,0.16125 24.52625,0.0825 24.15625,0.125 C 23.5075,0.19875 23.09,0.65875 23.15625,1.25 C 23.184999,1.49875 23.3075,1.69625 23.5,1.84375 C 23.67625,1.97625 23.84625,2.05625 24.3125,2.1875 C 24.88125,2.3375001 25.02375,2.385 25.15625,2.46875 C 25.264999,2.5487501 25.325,2.70875 25.34375,2.875 C 25.388751,3.2687499 25.165,3.5425 24.71875,3.59375 C 24.417501,3.62875 24.1425,3.53125 23.96875,3.34375 C 23.847499,3.2199999 23.78875,3.0925 23.75,2.8125 L 23.28125,2.84375 L 23.40625,4.09375 L 23.875,4.03125 L 23.84375,3.71875 C 24.14,3.9675001 24.4425,4.04625 24.84375,4 C 25.568751,3.9175001 26.01125,3.4 25.9375,2.75 C 25.906249,2.4699999 25.7875,2.24 25.59375,2.09375 C 25.392499,1.9400001 25.23125,1.8525 24.59375,1.6875 C 23.922499,1.5112501 23.75125,1.44375 23.71875,1.15625 C 23.68125,0.82999999 23.9425,0.5775 24.34375,0.53125 C 24.82625,0.47625001 25.06875,0.6925 25.15625,1.1875 L 25.59375,1.125 L 25.46875,0.0625 z M 34.03125,0.75 L 33.8125,1.4375 L 34.46875,1.625 L 34.65625,0.9375 L 34.03125,0.75 z M 20.46875,0.96875 C 20.283281,0.9934375 20.03,1.053125 19.65625,1.15625 L 18.375,1.53125 L 18.46875,1.9375 L 18.9375,1.78125 L 19.71875,4.65625 L 19.25,4.78125 L 19.375,5.15625 L 20.78125,4.78125 L 20.6875,4.375 L 20.25,4.5 L 19.90625,3.25 L 20.625,3.0625 L 21.8125,4.5 L 22.6875,4.25 L 22.5625,3.84375 L 22.125,3.96875 L 21.09375,2.875 C 21.614999,2.5649999 21.79375,2.18625 21.65625,1.6875 C 21.5525,1.31375 21.3075,1.08625 20.9375,1 C 20.789375,0.96562499 20.654219,0.9440625 20.46875,0.96875 z M 35.1875,1.09375 L 33.0625,4.03125 L 32.625,3.875 L 32.5,4.28125 L 33.84375,4.65625 L 33.9375,4.3125 L 33.53125,4.1875 L 34,3.53125 L 35.25,3.90625 L 35.25,4.6875 L 34.84375,4.5625 L 34.71875,4.9375 L 36.21875,5.375 L 36.3125,4.96875 L 35.84375,4.84375 L 35.71875,1.25 L 35.1875,1.09375 z M 20.375,1.40625 C 20.483125,1.3879688 20.555,1.39375 20.625,1.40625 C 20.8475,1.43875 21.02375,1.59375 21.09375,1.84375 C 21.156249,2.07125 21.10875,2.255 20.96875,2.40625 C 20.846249,2.53375 20.7275,2.595 20.28125,2.71875 L 19.8125,2.84375 L 19.46875,1.65625 L 19.9375,1.53125 C 20.15,1.473125 20.266875,1.4245312 20.375,1.40625 z M 36.25,1.46875 L 36.0625,2.15625 L 36.6875,2.34375 L 36.90625,1.65625 L 36.25,1.46875 z M 35.25,1.65625 C 35.225002,1.95 35.2275,2.085 35.21875,2.78125 L 35.25,3.46875 L 34.25,3.1875 L 34.625,2.65625 C 34.96625,2.1474999 35.14375,1.855 35.25,1.65625 z M 16.90625,2.09375 L 14.4375,3.28125 L 14.625,3.65625 L 15.0625,3.4375 L 16.3125,6.09375 L 15.875,6.3125 L 16.0625,6.6875 L 18.5625,5.5 L 18.125,4.5625 L 17.6875,4.78125 L 17.9375,5.3125 L 16.84375,5.84375 L 16.25,4.625 L 17.5,4.0625 L 17.3125,3.65625 L 16.0625,4.25 L 15.5625,3.1875 L 16.65625,2.6875 L 16.875,3.15625 L 17.28125,2.9375 L 16.90625,2.09375 z M 38.375,2.25 L 37.9375,3.125 L 38.34375,3.34375 L 38.59375,2.8125 L 39.25,3.15625 L 37.9375,5.78125 L 37.5,5.5625 L 37.3125,5.9375 L 38.71875,6.625 L 38.90625,6.28125 L 38.46875,6.0625 L 39.78125,3.40625 L 40.40625,3.71875 L 40.15625,4.25 L 40.59375,4.4375 L 41.03125,3.5625 L 38.375,2.25 z M 81.75,3.78125 L 81.75,14.09375 L 82.59375,14.09375 L 82.59375,3.78125 L 81.75,3.78125 z M 13.375,3.90625 L 12.21875,4.6875 L 12.4375,5.03125 L 12.78125,4.8125 L 13.15625,6.15625 C 13.18625,6.2650001 13.3525,6.72125 13.40625,6.90625 C 13.5175,7.245 13.57875,7.495 13.625,7.65625 C 13.54375,7.5924998 13.46125,7.53875 13.375,7.46875 C 12.88875,7.0550001 12.75375,6.9325 12.4375,6.6875 L 11.3125,5.8125 L 11.65625,5.5625 L 11.4375,5.21875 L 10.1875,6.09375 L 10.4375,6.40625 L 10.84375,6.15625 L 13.6875,8.3125 L 14.125,8 L 13.21875,4.5 L 13.59375,4.25 L 13.375,3.90625 z M 115.03125,4.0625 L 115.03125,5.21875 L 115.90625,5.21875 L 115.90625,4.0625 L 115.03125,4.0625 z M 141,4.0625 L 141,5.21875 L 141.84375,5.21875 L 141.84375,4.0625 L 141,4.0625 z M 181.125,4.0625 L 181.125,5.21875 L 182,5.21875 L 182,4.0625 L 181.125,4.0625 z M 207.09375,4.0625 L 207.09375,5.21875 L 207.9375,5.21875 L 207.9375,4.0625 L 207.09375,4.0625 z M 215.375,4.78125 L 215.375,5.9375 L 216.40625,5.9375 L 216.40625,4.78125 L 215.375,4.78125 z M 217.71875,4.78125 L 217.71875,5.9375 L 218.75,5.9375 L 218.75,4.78125 L 217.71875,4.78125 z M 43.375,5 L 43.09375,5.34375 L 43.46875,5.625 L 42.34375,7 C 41.9075,7.5275001 41.82875,7.67 41.78125,7.90625 C 41.71,8.3412498 41.91,8.82875 42.34375,9.1875 C 42.724999,9.5025 43.15125,9.6225 43.53125,9.53125 C 43.812502,9.4674996 44.02625,9.28125 44.4375,8.78125 L 45.59375,7.40625 L 45.96875,7.6875 L 46.25,7.375 L 45.09375,6.4375 L 44.84375,6.78125 L 45.21875,7.09375 L 44.0625,8.46875 C 43.699999,8.9099999 43.66,8.96 43.53125,9.03125 C 43.268749,9.1699996 42.955,9.12125 42.65625,8.875 C 42.39125,8.6574996 42.27375,8.38875 42.3125,8.125 C 42.338751,7.9500002 42.32625,7.93875 42.78125,7.375 L 43.90625,6 L 44.3125,6.3125 L 44.5625,6 L 43.375,5 z M 145.46875,5.09375 L 144.59375,5.40625 L 144.59375,7.09375 L 143.21875,7.09375 L 143.21875,7.84375 L 144.59375,7.84375 L 144.59375,11.9375 C 144.59375,13.21625 144.64625,14.28125 146.1875,14.28125 C 146.61375,14.28125 147.04375,14.17625 147.25,14.09375 L 147.1875,13.375 C 146.94,13.47125 146.73625,13.53125 146.40625,13.53125 C 145.705,13.53125 145.46875,13.0075 145.46875,12.375 L 145.46875,7.84375 L 147.0625,7.84375 L 147.0625,7.09375 L 145.46875,7.09375 L 145.46875,5.09375 z M 211.5625,5.09375 L 210.6875,5.40625 L 210.6875,7.09375 L 209.3125,7.09375 L 209.3125,7.84375 L 210.6875,7.84375 L 210.6875,11.9375 C 210.6875,13.21625 210.74,14.28125 212.28125,14.28125 C 212.70625,14.28125 213.1375,14.17625 213.34375,14.09375 L 213.28125,13.375 C 213.03375,13.47125 212.82875,13.53125 212.5,13.53125 C 211.7975,13.53125 211.5625,13.0075 211.5625,12.375 L 211.5625,7.84375 L 213.15625,7.84375 L 213.15625,7.09375 L 211.5625,7.09375 L 211.5625,5.09375 z M 223,5.09375 L 222.15625,5.40625 L 222.15625,7.09375 L 220.78125,7.09375 L 220.78125,7.84375 L 222.15625,7.84375 L 222.15625,11.9375 C 222.15625,13.21625 222.21,14.28125 223.75,14.28125 C 224.17625,14.28125 224.60625,14.17625 224.8125,14.09375 L 224.75,13.375 C 224.50249,13.47125 224.2675,13.53125 223.9375,13.53125 C 223.23624,13.53125 223,13.0075 223,12.375 L 223,7.84375 L 224.59375,7.84375 L 224.59375,7.09375 L 223,7.09375 L 223,5.09375 z M 232.78125,5.15625 L 232.78125,49.53125 L 236.40625,49.53125 L 236.40625,5.15625 L 232.78125,5.15625 z M 27.5625,5.3125 C 15.3475,5.3124999 5.4375,15.21375 5.4375,27.4375 C 5.4375001,39.661249 15.3475,49.59375 27.5625,49.59375 C 39.77625,49.59375 49.65625,39.66125 49.65625,27.4375 C 49.656249,15.213749 39.77625,5.3125 27.5625,5.3125 z M 27.5625,6.4375 C 30.14375,6.4374998 32.1475,8.9575 33.5,13.03125 C 34.48625,12.53625 35.45125,12.15375 36.34375,11.875 C 36.383752,11.67875 36.47375,11.49625 36.625,11.34375 C 37.034999,10.93375 37.68375,10.9325 38.09375,11.34375 C 38.128749,11.37875 38.15875,11.4 38.1875,11.4375 C 39.932501,11.20875 41.39125,11.5475 42.40625,12.5625 C 44.231251,14.38875 43.86375,17.62875 41.9375,21.46875 C 43.053748,21.840001 44.07125,22.27875 44.9375,22.75 C 45.09375,22.656251 45.2725,22.59375 45.46875,22.59375 C 46.048752,22.59375 46.5,23.075 46.5,23.65625 C 46.499999,23.699999 46.505,23.73875 46.5,23.78125 C 47.816249,24.829999 48.5625,26.0475 48.5625,27.4375 C 48.562501,30.019999 46.01,32.05375 41.9375,33.40625 C 42.481251,34.491251 42.905,35.53 43.1875,36.5 C 43.362501,36.545 43.51875,36.64375 43.65625,36.78125 C 44.067499,37.192498 44.0675,37.84 43.65625,38.25 C 43.62375,38.285 43.6,38.315 43.5625,38.34375 C 43.729999,39.97875 43.3725,41.34625 42.40625,42.3125 C 40.580001,44.139999 37.3375,43.77125 33.5,41.84375 C 33.123749,42.98375 32.69875,43.9975 32.21875,44.875 C 32.365,45.056249 32.46875,45.31125 32.46875,45.5625 C 32.468749,46.14375 31.98625,46.59375 31.40625,46.59375 C 31.30125,46.593749 31.22,46.59125 31.125,46.5625 C 30.098751,47.79375 28.9025,48.46875 27.5625,48.46875 C 24.97875,48.46875 22.94375,45.92375 21.59375,41.84375 C 20.521249,42.38125 19.49125,42.8125 18.53125,43.09375 C 18.541249,43.375002 18.43375,43.65875 18.21875,43.875 C 17.80875,44.285001 17.16,44.28625 16.75,43.875 C 16.637501,43.762502 16.55125,43.60875 16.5,43.46875 C 14.936249,43.598749 13.62125,43.2475 12.6875,42.3125 C 10.86125,40.486251 11.2325,37.24625 13.15625,33.40625 C 12.085,33.051251 11.1225,32.665 10.28125,32.21875 C 10.08875,32.443752 9.78875,32.5625 9.46875,32.5625 C 8.8875003,32.562502 8.4375,32.11125 8.4375,31.53125 C 8.4374998,31.367501 8.465,31.2 8.53125,31.0625 C 7.2524996,30.022501 6.53125,28.8075 6.53125,27.4375 C 6.53125,24.85375 9.08125,22.8225 13.15625,21.46875 C 12.665,20.488751 12.2775,19.57375 12,18.6875 C 11.7025,18.7125 11.38375,18.60375 11.15625,18.375 C 10.74625,17.965001 10.74625,17.285 11.15625,16.875 C 11.26875,16.762501 11.4225,16.67625 11.5625,16.625 C 11.3725,14.95 11.705,13.57875 12.6875,12.59375 C 14.51375,10.7675 17.75625,11.13625 21.59375,13.0625 C 21.93875,12.02 22.31875,11.07625 22.75,10.25 C 22.583749,10.065 22.5,9.8 22.5,9.53125 C 22.500001,8.9499998 22.95,8.5 23.53125,8.5 C 23.635,8.4999995 23.7475,8.50375 23.84375,8.53125 C 24.9025,7.1812497 26.155,6.4375 27.5625,6.4375 z M 9.25,6.90625 L 8.15625,7.96875 L 8.4375,8.25 L 8.78125,7.9375 L 10.8125,10.09375 L 10.46875,10.40625 L 10.75,10.71875 L 11.875,9.65625 L 11.59375,9.34375 L 11.21875,9.6875 L 9.1875,7.53125 L 9.53125,7.21875 L 9.25,6.90625 z M 87.78125,6.9375 C 86.281251,6.9374999 85.86875,7.8 85.59375,8.28125 L 85.5625,8.28125 L 85.5625,7.09375 L 84.75,7.09375 C 84.804999,7.6574999 84.78125,8.21375 84.78125,8.75 L 84.78125,14.09375 L 85.65625,14.09375 L 85.65625,10.21875 C 85.656249,8.4725002 86.58375,7.65625 87.53125,7.65625 C 88.645,7.6562501 89.03125,8.4475 89.03125,9.4375 L 89.03125,14.09375 L 89.90625,14.09375 L 89.90625,10.21875 C 89.90625,8.4725002 90.8325,7.65625 91.78125,7.65625 C 92.894999,7.6562501 93.25,8.4475 93.25,9.4375 L 93.25,14.09375 L 94.125,14.09375 L 94.125,9.28125 C 94.125001,7.9199997 93.3225,6.9375 91.90625,6.9375 C 90.807503,6.9374999 90.00375,7.58125 89.6875,8.40625 L 89.65625,8.40625 C 89.436247,7.1824997 88.39875,6.9375 87.78125,6.9375 z M 110.46875,6.9375 C 109.01125,6.9375 108.50625,7.71125 108.21875,8.34375 L 108.1875,8.34375 L 108.1875,7.09375 L 107.34375,7.09375 C 107.39875,7.6575001 107.40625,8.21375 107.40625,8.75 L 107.40625,14.125 L 108.28125,14.125 L 108.28125,10.21875 C 108.28125,9.0500003 108.76125,7.6875 110.34375,7.6875 C 111.54,7.6875002 112,8.52375 112,9.84375 L 112,14.125 L 112.875,14.125 L 112.875,9.625 C 112.875,8.0849999 112.2025,6.9375 110.46875,6.9375 z M 126.625,6.9375 C 124.8525,6.9374999 123.6875,8.45 123.6875,10.59375 C 123.6875,12.6975 124.5525,14.28125 126.875,14.28125 C 127.52125,14.28125 128.30125,14.1225 128.90625,13.875 L 128.90625,13 C 128.49375,13.26125 127.57,13.53125 126.9375,13.53125 C 125.425,13.53125 124.625,12.32875 124.625,10.84375 L 129.40625,10.84375 L 129.40625,10.40625 C 129.40625,8.5225002 128.60625,6.9375 126.625,6.9375 z M 133.71875,6.9375 C 132.82375,6.9375 132.2225,7.65375 131.90625,8.4375 L 131.875,8.4375 L 131.875,7.09375 L 131.03125,7.09375 C 131.08625,7.6025001 131.0625,7.88625 131.0625,8.65625 L 131.0625,14.125 L 131.9375,14.125 L 131.9375,10.65625 C 131.9375,9.39125 132.3125,7.84375 133.6875,7.84375 C 133.9075,7.8437498 134.13375,7.8825 134.3125,7.9375 L 134.3125,7.03125 C 134.16124,6.9900001 133.925,6.9375 133.71875,6.9375 z M 137.40625,6.9375 C 136.25249,6.9375002 135.125,7.455 135.125,8.84375 C 135.125,10.87875 138.5,10.6175 138.5,12.28125 C 138.5,13.07875 137.76125,13.53125 136.9375,13.53125 C 136.26251,13.53125 135.61625,13.355 135.09375,13.09375 L 135.03125,13.9375 C 135.64875,14.185 136.32625,14.28125 137,14.28125 C 138.06,14.28125 139.4375,13.76625 139.4375,12.28125 C 139.43751,9.9849996 136,10.15 136,8.84375 C 136,7.9499996 136.6075,7.6875 137.5,7.6875 C 137.98126,7.6874999 138.6075,7.79375 139.0625,8 L 139.125,7.25 C 138.5075,7.0162499 137.7775,6.9375 137.40625,6.9375 z M 176.5625,6.9375 C 175.10499,6.9375 174.6025,7.71125 174.3125,8.34375 L 174.28125,8.34375 L 174.28125,7.09375 L 173.4375,7.09375 C 173.4925,7.6575001 173.5,8.21375 173.5,8.75 L 173.5,14.125 L 174.375,14.125 L 174.375,10.21875 C 174.375,9.0500003 174.85625,7.6875 176.4375,7.6875 C 177.63375,7.6875002 178.09375,8.52375 178.09375,9.84375 L 178.09375,14.125 L 178.96875,14.125 L 178.96875,9.625 C 178.96876,8.0849999 178.295,6.9375 176.5625,6.9375 z M 192.71875,6.9375 C 190.94625,6.9374999 189.78125,8.45 189.78125,10.59375 C 189.78125,12.6975 190.64625,14.28125 192.96875,14.28125 C 193.61625,14.28125 194.39625,14.1225 195,13.875 L 195,13 C 194.5875,13.26125 193.6625,13.53125 193.03125,13.53125 C 191.51751,13.53125 190.71875,12.32875 190.71875,10.84375 L 195.53125,10.84375 L 195.53125,10.40625 C 195.53125,8.5225002 194.69875,6.9375 192.71875,6.9375 z M 199.8125,6.9375 C 198.91875,6.9375 198.315,7.65375 198,8.4375 L 197.96875,8.4375 L 197.96875,7.09375 L 197.125,7.09375 C 197.17999,7.6025001 197.15625,7.88625 197.15625,8.65625 L 197.15625,14.125 L 198.03125,14.125 L 198.03125,10.65625 C 198.03124,9.39125 198.40625,7.84375 199.78125,7.84375 C 200.0025,7.8437498 200.22625,7.8825 200.40625,7.9375 L 200.40625,7.03125 C 200.255,6.9900001 200.01875,6.9375 199.8125,6.9375 z M 203.5,6.9375 C 202.345,6.9375002 201.21875,7.455 201.21875,8.84375 C 201.21875,10.87875 204.59375,10.6175 204.59375,12.28125 C 204.59375,13.07875 203.85625,13.53125 203.03125,13.53125 C 202.35749,13.53125 201.71,13.355 201.1875,13.09375 L 201.125,13.9375 C 201.74375,14.185 202.42,14.28125 203.09375,14.28125 C 204.1525,14.28125 205.53125,13.76625 205.53125,12.28125 C 205.53126,9.9849996 202.09375,10.15 202.09375,8.84375 C 202.09376,7.9499996 202.7,7.6875 203.59375,7.6875 C 204.07499,7.6874999 204.7025,7.79375 205.15625,8 L 205.21875,7.25 C 204.6,7.0162499 203.87125,6.9375 203.5,6.9375 z M 217.0625,6.9375 C 216.44376,6.9375002 215.5375,7.145 215,7.40625 L 215,8.25 C 215.64749,7.8375 216.33375,7.6875 217.0625,7.6875 C 218.23001,7.6874999 218.65625,8.2725 218.65625,9.46875 L 218.65625,9.84375 L 218.5,9.84375 C 216.68625,9.8437498 214.15625,9.93 214.15625,12.28125 C 214.15626,12.91375 214.47375,14.28125 216.46875,14.28125 C 217.33376,14.28125 218.3325,13.80875 218.71875,12.96875 L 218.71875,14.125 L 219.59375,14.125 C 219.52374,13.64375 219.53125,13.18875 219.53125,12.625 L 219.53125,9.53125 C 219.53125,7.7025005 218.79375,6.9375 217.0625,6.9375 z M 74.09375,7.09375 L 74.09375,11.5625 C 74.09375,13.1025 74.7675,14.28125 76.5,14.28125 C 77.956248,14.28125 78.46,13.47625 78.75,12.84375 L 78.78125,12.84375 L 78.78125,14.09375 L 79.625,14.09375 C 79.569997,13.53 79.5625,12.97375 79.5625,12.4375 L 79.5625,7.09375 L 78.71875,7.09375 L 78.71875,10.96875 C 78.718753,12.13625 78.20625,13.53125 76.625,13.53125 C 75.430002,13.53125 74.96875,12.66375 74.96875,11.34375 L 74.96875,7.09375 L 74.09375,7.09375 z M 99.34375,7.09375 L 99.34375,11.59375 C 99.343746,13.135 99.98625,14.28125 101.71875,14.28125 C 103.17625,14.28125 103.71125,13.5075 104,12.875 L 104.03125,12.875 L 104.03125,14.125 L 104.875,14.125 C 104.82,13.56125 104.8125,13.005 104.8125,12.46875 L 104.8125,7.09375 L 103.9375,7.09375 L 103.9375,10.96875 C 103.9375,12.1375 103.45625,13.53125 101.875,13.53125 C 100.67875,13.53125 100.21875,12.695 100.21875,11.375 L 100.21875,7.09375 L 99.34375,7.09375 z M 115.03125,7.09375 L 115.03125,14.125 L 115.90625,14.125 L 115.90625,7.09375 L 115.03125,7.09375 z M 117.125,7.09375 L 119.5,14.125 L 120.53125,14.125 L 123,7.09375 L 122.09375,7.09375 L 120.0625,13.15625 L 120.03125,13.15625 L 118.09375,7.09375 L 117.125,7.09375 z M 141,7.09375 L 141,14.125 L 141.84375,14.125 L 141.84375,7.09375 L 141,7.09375 z M 147.90625,7.09375 L 150.375,14.1875 L 150.21875,14.8125 C 149.94375,15.72 149.68,16.34375 148.9375,16.34375 C 148.62125,16.34375 148.44625,16.27375 148.28125,16.21875 L 148.21875,16.96875 C 148.50751,17.037501 148.83875,17.0625 149.15625,17.0625 C 150.13249,17.0625 150.60625,16.11875 150.9375,15.15625 L 153.75,7.09375 L 152.84375,7.09375 L 150.8125,12.9375 L 148.84375,7.09375 L 147.90625,7.09375 z M 165.4375,7.09375 L 165.4375,11.59375 C 165.4375,13.135 166.11,14.28125 167.84375,14.28125 C 169.30125,14.28125 169.805,13.5075 170.09375,12.875 L 170.125,12.875 L 170.125,14.125 L 170.96875,14.125 C 170.91376,13.56125 170.90625,13.005 170.90625,12.46875 L 170.90625,7.09375 L 170.03125,7.09375 L 170.03125,10.96875 C 170.03126,12.1375 169.55,13.53125 167.96875,13.53125 C 166.77125,13.53125 166.3125,12.695 166.3125,11.375 L 166.3125,7.09375 L 165.4375,7.09375 z M 181.125,7.09375 L 181.125,14.125 L 182,14.125 L 182,7.09375 L 181.125,7.09375 z M 183.21875,7.09375 L 185.59375,14.125 L 186.625,14.125 L 189.09375,7.09375 L 188.1875,7.09375 L 186.15625,13.15625 L 186.125,13.15625 L 184.1875,7.09375 L 183.21875,7.09375 z M 207.09375,7.09375 L 207.09375,14.125 L 207.9375,14.125 L 207.9375,7.09375 L 207.09375,7.09375 z M 27.5625,7.46875 C 26.40125,7.4687499 25.36125,8.0225 24.4375,9 C 24.53625,9.1600002 24.59375,9.33 24.59375,9.53125 C 24.593749,10.1125 24.11125,10.59375 23.53125,10.59375 C 23.43875,10.59375 23.36625,10.585 23.28125,10.5625 C 22.81625,11.34125 22.375,12.26 22,13.28125 C 23.75375,14.2025 25.61875,15.41625 27.53125,16.90625 C 29.452501,15.407501 31.33375,14.17375 33.09375,13.25 C 31.787501,9.6775 29.9075,7.46875 27.5625,7.46875 z M 126.6875,7.6875 C 127.98125,7.6875001 128.46875,8.87 128.46875,10.09375 L 124.625,10.09375 C 124.625,8.9387499 125.40875,7.6875 126.6875,7.6875 z M 192.78125,7.6875 C 194.07501,7.6875001 194.5625,8.87 194.5625,10.09375 L 190.71875,10.09375 C 190.71876,8.9387499 191.5025,7.6875 192.78125,7.6875 z M 47.28125,8.4375 L 46.96875,8.6875 L 47.28125,9.0625 L 45.03125,11 L 44.71875,10.625 L 44.40625,10.875 L 46.21875,13.03125 L 47,12.34375 L 46.6875,12 L 46.21875,12.375 L 45.40625,11.40625 L 47.65625,9.5 L 47.96875,9.875 L 48.28125,9.625 L 47.28125,8.4375 z M 7.21875,8.875 L 6.3125,10.03125 L 6.625,10.28125 L 6.9375,9.875 L 7.8125,10.5625 C 8.275,10.92125 8.67125,11.2325 9.03125,11.5 C 8.41,11.365 7.52,11.18625 7,11.09375 L 5.65625,10.875 L 4.9375,11.78125 L 5.25,12.03125 L 5.5625,11.65625 L 7.84375,13.5 L 7.5625,13.875 L 7.875,14.125 L 8.78125,13 L 8.46875,12.75 L 8.15625,13.15625 L 7.21875,12.40625 C 7.0824998,12.29625 6.30125,11.695 5.875,11.375 C 6.0137501,11.3975 6.1725,11.405 6.3125,11.4375 C 7.06625,11.60125 7.26375,11.66375 7.9375,11.78125 L 9.53125,12.0625 L 9.875,11.625 L 7.25,9.53125 L 7.5625,9.15625 L 7.21875,8.875 z M 218.40625,10.5625 L 218.65625,10.5625 L 218.65625,11 C 218.65626,11.75625 218.59875,13.53125 216.5625,13.53125 C 215.76626,13.53125 215.125,13.2025 215.125,12.28125 C 215.12499,10.74125 216.9075,10.5625 218.40625,10.5625 z M 49.96875,11.65625 L 49.59375,11.875 L 49.875,12.3125 L 47.3125,13.8125 L 47.0625,13.375 L 46.71875,13.59375 L 47.46875,14.84375 L 47.8125,14.65625 L 47.53125,14.21875 L 48.71875,13.53125 C 49.576249,13.00875 49.66875,12.95625 50.09375,12.6875 C 49.721251,13.07625 49.3125,13.5125 48.875,14 L 47.84375,15.125 L 48.09375,15.5625 L 49.625,15.25 C 50.238751,15.12625 50.53625,15.04625 51.34375,14.84375 L 50.84375,15.125 L 50.5625,15.28125 L 50.25,15.46875 C 50.102498,15.54625 50.00875,15.60125 49.96875,15.625 L 48.78125,16.3125 L 48.53125,15.875 L 48.1875,16.09375 L 48.96875,17.40625 L 49.3125,17.21875 L 49.0625,16.78125 L 51.625,15.28125 L 51.875,15.71875 L 52.21875,15.5 L 51.5625,14.375 L 50.09375,14.71875 C 49.314999,14.895 49.1325,14.905 48.40625,15.09375 C 48.942499,14.56625 49.155,14.37625 49.59375,13.90625 L 50.625,12.8125 L 49.96875,11.65625 z M 16.78125,12.1875 C 15.419219,12.138281 14.266875,12.481875 13.4375,13.3125 C 12.60625,14.1425 12.26375,15.29 12.3125,16.65625 C 12.43875,16.707501 12.55375,16.77125 12.65625,16.875 C 13.06625,17.285001 13.06625,17.965 12.65625,18.375 L 12.5625,18.4375 C 12.78125,19.34 13.12375,20.3275 13.59375,21.34375 C 15.4875,20.753749 17.715,20.29875 20.125,20 C 20.42375,17.58375 20.8475,15.36375 21.4375,13.46875 C 19.7125,12.66625 18.143281,12.236719 16.78125,12.1875 z M 38.40625,12.1875 C 38.385,12.425 38.275,12.66125 38.09375,12.84375 C 37.683749,13.25375 37.035,13.255 36.625,12.84375 C 36.522499,12.74125 36.42625,12.59625 36.375,12.46875 C 35.51625,12.69125 34.615,13.055 33.65625,13.5 C 34.246251,15.395 34.7,17.58625 35,20 C 37.409999,20.298751 39.6075,20.75375 41.5,21.34375 C 43.102502,17.890001 43.315,14.9725 41.65625,13.3125 C 40.842499,12.4975 39.735,12.155 38.40625,12.1875 z M 4.125,13.03125 L 3.4375,14.3125 L 3.78125,14.53125 L 4.03125,14.09375 L 5.625,14.9375 C 6.12625,15.21 6.15625,15.2625 6.25,15.375 C 6.43625,15.60625 6.435,15.94 6.25,16.28125 C 6.08625,16.58125 5.85875,16.74 5.59375,16.75 C 5.4162502,16.757501 5.42,16.74375 4.78125,16.40625 L 3.21875,15.5625 L 3.4375,15.125 L 3.09375,14.9375 L 2.34375,16.3125 L 2.71875,16.5 L 2.9375,16.0625 L 4.5,16.9375 C 5.1012499,17.263749 5.2575,17.31125 5.5,17.3125 C 5.9387501,17.30125 6.35625,16.995 6.625,16.5 C 6.86,16.06625 6.91125,15.60625 6.75,15.25 C 6.63375,14.98625 6.41125,14.84 5.84375,14.53125 L 4.25,13.65625 L 4.5,13.21875 L 4.125,13.03125 z M 21.875,13.6875 C 21.255,15.4925 20.76125,17.62125 20.4375,19.96875 C 21.68,19.8225 22.975,19.69 24.3125,19.625 C 25.307499,18.721251 26.2975,17.9025 27.28125,17.125 C 25.399999,15.695 23.58375,14.52625 21.875,13.6875 z M 33.25,13.6875 C 31.53375,14.525 29.70375,15.69 27.8125,17.125 C 28.79625,17.90125 29.78625,18.7225 30.78125,19.625 C 32.12625,19.69125 33.44,19.82125 34.6875,19.96875 C 34.366251,17.61875 33.86875,15.4925 33.25,13.6875 z M 27.5625,17.3125 C 26.643751,18.020001 25.71125,18.79875 24.78125,19.625 C 25.69125,19.587501 26.62125,19.5625 27.5625,19.5625 C 28.505,19.5625 29.40375,19.5875 30.3125,19.625 C 29.3825,18.79875 28.48,18.02 27.5625,17.3125 z M 3.59375,17.8125 C 3.459375,17.8125 3.3525,17.86625 3.25,17.96875 C 3.045,18.17375 3.045,18.51375 3.25,18.71875 C 3.455,18.925 3.7624999,18.925 3.96875,18.71875 C 4.17375,18.51375 4.1737499,18.173749 3.96875,17.96875 C 3.86625,17.86625 3.728125,17.8125 3.59375,17.8125 z M 51.15625,17.8125 C 51.021875,17.8125 50.88375,17.86625 50.78125,17.96875 C 50.57625,18.17375 50.577502,18.51375 50.78125,18.71875 C 50.98625,18.925 51.32625,18.925 51.53125,18.71875 C 51.73625,18.51375 51.73625,18.173749 51.53125,17.96875 C 51.42875,17.86625 51.290625,17.8125 51.15625,17.8125 z M 256.8125,19.34375 C 250.5125,19.343751 248.78125,23.03875 247.625,25.0625 L 247.5,25.03125 L 247.5,20.03125 L 244,20.03125 C 244.23124,22.402499 244.21875,24.74375 244.21875,27 L 244.21875,49.53125 L 247.875,49.53125 L 247.875,33.21875 C 247.875,25.8725 251.7925,22.46875 255.78125,22.46875 C 260.4625,22.46875 262.03125,25.7725 262.03125,29.9375 L 262.03125,49.53125 L 265.65625,49.53125 L 265.65625,33.21875 C 265.65625,25.8725 269.605,22.46875 273.59375,22.46875 C 278.27499,22.46875 279.8125,25.7725 279.8125,29.9375 L 279.8125,49.53125 L 283.46875,49.53125 L 283.46875,29.25 C 283.46876,23.52375 280.10875,19.34375 274.15625,19.34375 C 269.53001,19.343751 266.07875,22.12375 264.75,25.59375 L 264.625,25.59375 C 263.70001,20.444999 259.4125,19.34375 256.8125,19.34375 z M 52.75,19.5625 C 52.506249,19.624999 52.3375,19.78875 52.21875,20 C 52.11125,20.19375 52.06375,20.39375 52,20.875 C 51.929999,21.457501 51.8775,21.6075 51.8125,21.75 C 51.74875,21.86875 51.63,21.9575 51.46875,22 C 51.086249,22.098749 50.8,21.8725 50.6875,21.4375 C 50.61125,21.143749 50.6525,20.85625 50.8125,20.65625 C 50.918752,20.51875 51.0425,20.4525 51.3125,20.375 L 51.1875,19.90625 L 50,20.21875 L 50.125,20.6875 L 50.4375,20.625 C 50.230002,20.9525 50.18,21.235 50.28125,21.625 C 50.463751,22.332501 51.02375,22.72625 51.65625,22.5625 C 51.92875,22.491249 52.16375,22.33625 52.28125,22.125 C 52.406251,21.90375 52.4575,21.71875 52.53125,21.0625 C 52.61375,20.3725 52.68875,20.19625 52.96875,20.125 C 53.285001,20.0425 53.525,20.265 53.625,20.65625 C 53.747501,21.1275 53.60375,21.4075 53.125,21.5625 L 53.21875,21.96875 L 54.28125,21.71875 L 54.15625,21.28125 L 53.90625,21.34375 C 54.081249,21.04625 54.0925,20.76875 54,20.40625 C 53.836251,19.77375 53.32375,19.41375 52.75,19.5625 z M 2.25,19.6875 C 1.4973047,19.748906 0.9271875,20.199688 0.75,20.9375 C 0.51624999,21.9075 1.135,22.7625 2.25,23.03125 C 3.4262499,23.313751 4.32375,22.86625 4.5625,21.875 C 4.7974999,20.891251 4.20875,20.05625 3.0625,19.78125 C 2.7759375,19.712188 2.5008984,19.667031 2.25,19.6875 z M 27.53125,19.84375 C 26.473751,19.843751 25.45,19.85375 24.4375,19.90625 C 23.681251,20.5875 22.9075,21.31125 22.15625,22.0625 C 21.411251,22.8075 20.70875,23.56375 20.03125,24.3125 C 19.97875,25.332499 19.96875,26.3725 19.96875,27.4375 C 19.96875,28.499999 19.97875,29.545 20.03125,30.5625 C 20.71,31.315001 21.44,32.065 22.1875,32.8125 C 22.936249,33.56125 23.68375,34.2875 24.4375,34.96875 C 25.448751,35.020001 26.47375,35.03125 27.53125,35.03125 C 28.593751,35.031252 29.63875,35.02125 30.65625,34.96875 C 31.408749,34.288748 32.15875,33.55875 32.90625,32.8125 C 33.66,32.05625 34.37875,31.32375 35.0625,30.5625 C 35.115001,29.551249 35.15625,28.49375 35.15625,27.4375 C 35.156251,26.378749 35.11375,25.35625 35.0625,24.34375 C 34.381251,23.58625 33.68875,22.815 32.9375,22.0625 C 32.187501,21.312501 31.41125,20.5875 30.65625,19.90625 C 29.64,19.85375 28.5925,19.84375 27.53125,19.84375 z M 27.53125,19.90625 C 27.721249,19.906251 27.875,20.07 27.875,20.25 L 27.875,24.40625 C 29.4425,24.291249 30.8125,23.48125 30.8125,22.6875 C 30.8125,22.197501 30.2975,21.68125 29.53125,21.34375 C 29.372501,21.39 29.16,21.41375 28.9375,21.375 C 28.4925,21.29625 28.18,21.06625 28.21875,20.84375 C 28.25875,20.62125 28.6475,20.485 29.09375,20.5625 C 29.4275,20.622499 29.68375,20.77125 29.78125,20.9375 C 30.91625,21.307501 31.65625,21.95875 31.65625,22.6875 C 31.65625,23.56875 30.57625,24.32375 29.03125,24.625 C 30.34125,24.91625 31.25,25.55 31.25,26.3125 C 31.25,27.105 30.2675,27.79125 28.875,28.0625 C 30.056251,28.323749 30.875,28.9075 30.875,29.59375 C 30.875,30.305 29.99375,30.91 28.75,31.15625 C 29.80375,31.3925 30.53125,31.9475 30.53125,32.5625 C 30.531251,33.290002 29.52125,33.885 28.15625,34.03125 C 28.156251,34.031249 28.09375,33.98375 28.09375,33.90625 C 28.091251,33.846251 28.15625,33.78125 28.15625,33.78125 C 29.14875,33.613751 29.9375,33.08125 29.9375,32.5625 C 29.9375,32.001252 28.97375,31.42125 27.875,31.3125 L 27.875,34.53125 C 27.875,34.70875 27.72125,34.84375 27.53125,34.84375 C 27.339999,34.84375 27.1875,34.70875 27.1875,34.53125 L 27.1875,31.3125 C 26.092501,31.423749 25.1875,32.0025 25.1875,32.5625 C 25.1875,33.081252 25.945,33.61375 26.9375,33.78125 C 26.937501,33.781251 27.00125,33.84625 27,33.90625 C 26.997499,33.983751 26.9375,34.03125 26.9375,34.03125 C 25.572501,33.884999 24.5625,33.29 24.5625,32.5625 C 24.562501,31.947502 25.28875,31.3925 26.34375,31.15625 C 25.098749,30.91 24.21875,30.305 24.21875,29.59375 C 24.218749,28.9075 25.0375,28.32375 26.21875,28.0625 C 24.82625,27.791249 23.84375,27.105 23.84375,26.3125 C 23.84375,25.55 24.75375,24.91625 26.0625,24.625 C 24.518751,24.32375 23.4375,23.56875 23.4375,22.6875 C 23.437501,21.95875 24.1775,21.3075 25.3125,20.9375 C 25.409999,20.771251 25.66625,20.6225 26,20.5625 C 26.446251,20.484999 26.86625,20.62125 26.90625,20.84375 C 26.945,21.06625 26.6025,21.29625 26.15625,21.375 C 25.933751,21.41375 25.72125,21.39 25.5625,21.34375 C 24.795001,21.68125 24.28125,22.1975 24.28125,22.6875 C 24.28125,23.480001 25.62625,24.29 27.1875,24.40625 L 27.1875,20.25 C 27.187501,20.0725 27.34,19.90625 27.53125,19.90625 z M 23.96875,19.9375 C 22.730001,20.01125 21.55375,20.1325 20.40625,20.28125 C 20.2575,21.43125 20.135,22.63375 20.0625,23.875 C 20.675001,23.207501 21.30625,22.53875 21.96875,21.875 C 22.635,21.208749 23.29875,20.55375 23.96875,19.9375 z M 31.125,19.9375 C 31.797501,20.555001 32.4575,21.20625 33.125,21.875 C 33.792498,22.54125 34.4475,23.205 35.0625,23.875 C 34.988749,22.629999 34.86875,21.43375 34.71875,20.28125 C 33.566252,20.130001 32.37,20.01125 31.125,19.9375 z M 201.53125,19.96875 L 201.53125,38.875 C 201.53124,45.36625 204.29625,50.21875 211.59375,50.21875 C 217.73249,50.218749 219.94,46.91625 221.15625,44.25 L 221.28125,44.25 L 221.28125,49.53125 L 224.8125,49.53125 C 224.57999,47.15625 224.5625,44.855 224.5625,42.59375 L 224.5625,19.96875 L 220.90625,19.96875 L 220.90625,36.3125 C 220.90625,41.238749 218.84875,47.09375 212.1875,47.09375 C 207.14874,47.09375 205.15625,43.5 205.15625,37.9375 L 205.15625,19.96875 L 201.53125,19.96875 z M 165.375,20 L 165.375,38.65625 C 165.375,45.307498 168.415,50.21875 175.40625,50.21875 C 179.41625,50.218752 182.745,48.39875 185.09375,45.53125 L 185.21875,45.53125 L 185.21875,49.53125 L 192.46875,49.53125 L 192.46875,20 L 184.8125,20 L 184.8125,34.46875 C 184.8125,38.2525 183.59,44.28125 178.03125,44.28125 C 173.10499,44.281249 173.0625,39.395 173.0625,35.78125 L 173.0625,20 L 165.375,20 z M 2.28125,20.28125 C 2.4766797,20.279102 2.6696875,20.318437 2.90625,20.375 C 3.8525,20.603749 4.315,21.0925 4.15625,21.75 C 3.9962499,22.416249 3.38125,22.6725 2.40625,22.4375 C 1.48125,22.215001 1.03,21.69 1.1875,21.03125 C 1.3065625,20.537187 1.6949609,20.287695 2.28125,20.28125 z M 20.0625,20.3125 C 17.717499,20.632499 15.61625,21.10125 13.8125,21.71875 C 14.64875,23.435 15.78625,25.29625 17.21875,27.1875 C 17.995001,26.20125 18.84625,25.215 19.75,24.21875 C 19.815,22.8775 19.91625,21.5575 20.0625,20.3125 z M 35.03125,20.3125 C 35.177498,21.559999 35.2775,22.875 35.34375,24.21875 C 36.243749,25.21125 37.10125,26.20625 37.875,27.1875 C 39.304999,25.30125 40.475,23.4625 41.3125,21.75 C 39.511252,21.129999 37.375,20.635 35.03125,20.3125 z M 13.375,21.875 C 9.8012504,23.181249 7.59375,25.0875 7.59375,27.4375 C 7.5937498,28.592499 8.12625,29.6425 9.09375,30.5625 C 9.2149998,30.51375 9.32875,30.46875 9.46875,30.46875 C 10.04875,30.468751 10.53125,30.95 10.53125,31.53125 L 10.53125,31.65625 C 11.34,32.158749 12.29125,32.60125 13.375,33 C 14.295,31.243749 15.54,29.35375 17.03125,27.4375 C 15.535,25.515001 14.29875,23.635 13.375,21.875 z M 41.71875,21.90625 C 40.796251,23.6625 39.55625,25.51875 38.0625,27.4375 C 39.556251,29.354999 40.79625,31.24125 41.71875,33 C 45.29125,31.691248 47.5,29.785 47.5,27.4375 C 47.5,26.335001 47.01,25.3575 46.125,24.46875 C 45.942499,24.621249 45.72375,24.6875 45.46875,24.6875 C 44.888752,24.687501 44.40625,24.23625 44.40625,23.65625 C 44.406249,23.498749 44.4375,23.3225 44.5,23.1875 C 43.704999,22.7025 42.7725,22.2925 41.71875,21.90625 z M 53.125,23.5 C 52.987576,23.496824 52.836719,23.514219 52.6875,23.53125 C 51.486252,23.668749 50.8225,24.36125 50.9375,25.375 C 50.991252,25.851251 51.21125,26.1775 51.5625,26.375 C 51.823749,26.521251 52.07,26.5725 52.5,26.53125 L 52.4375,26.03125 C 51.776252,26.06 51.43375,25.82625 51.375,25.3125 C 51.3025,24.67625 51.81375,24.2325 52.75,24.125 C 53.732499,24.014999 54.33125,24.335 54.40625,25 C 54.462501,25.49875 54.2325,25.79125 53.6875,25.90625 L 53.75,26.375 L 54.90625,26.21875 L 54.84375,25.78125 L 54.5625,25.8125 C 54.782499,25.535 54.885,25.2375 54.84375,24.875 C 54.749689,24.041562 54.08697,23.522234 53.125,23.5 z M 1.59375,24.1875 C 1.1466211,24.249434 0.76625,24.459687 0.5,24.78125 C 0.22125,25.123749 0.11125,25.42875 0.0625,26.21875 L 0,27.4375 L 0.40625,27.46875 L 0.4375,27 L 3.375,27.15625 L 3.34375,27.65625 L 3.75,27.6875 L 3.84375,26.5 C 3.88875,25.786249 3.8475,25.5125 3.65625,25.15625 C 3.3625001,24.589999 2.785,24.23125 2.0625,24.1875 C 1.8996875,24.1775 1.742793,24.166855 1.59375,24.1875 z M 19.71875,24.65625 C 18.89125,25.58875 18.14625,26.5175 17.4375,27.4375 C 18.146251,28.36 18.89125,29.28625 19.71875,30.21875 C 19.68125,29.31 19.6875,28.37875 19.6875,27.4375 C 19.687501,26.490001 19.68125,25.57 19.71875,24.65625 z M 35.375,24.65625 C 35.412501,25.566251 35.4375,26.495 35.4375,27.4375 C 35.437502,28.373751 35.4125,29.315 35.375,30.21875 C 36.1975,29.291249 36.98125,28.35375 37.6875,27.4375 C 36.981251,26.52 36.1975,25.585 35.375,24.65625 z M 1.625,24.78125 C 1.749043,24.765664 1.8946875,24.772813 2.03125,24.78125 C 2.5475,24.81375 2.94625,25.01625 3.1875,25.3125 C 3.3925001,25.56875 3.47,25.82 3.4375,26.34375 L 3.40625,26.59375 L 0.46875,26.40625 L 0.5,26.125 C 0.53125,25.631251 0.57625,25.46125 0.75,25.25 C 0.946875,25.005313 1.2528711,24.828008 1.625,24.78125 z M 27.1875,24.78125 C 25.795001,24.898749 24.59375,25.60625 24.59375,26.3125 C 24.593751,27.02125 25.7975,27.76 27.1875,27.875 L 27.1875,24.78125 z M 27.875,24.78125 L 27.875,27.875 C 29.27125,27.760001 30.5,27.02125 30.5,26.3125 C 30.5,25.60375 29.2675,24.895 27.875,24.78125 z M 17.21875,27.6875 C 15.787499,29.57375 14.61875,31.41375 13.78125,33.125 C 15.585,33.746252 17.71375,34.24 20.0625,34.5625 C 19.916249,33.32 19.815,32.02625 19.75,30.6875 C 18.845,29.68875 17.9975,28.675 17.21875,27.6875 z M 37.875,27.6875 C 37.100001,28.67 36.24375,29.6625 35.34375,30.65625 C 35.278751,31.99875 35.1775,33.31625 35.03125,34.5625 C 37.373749,34.241248 39.51125,33.77375 41.3125,33.15625 C 40.474999,31.4425 39.305,29.575 37.875,27.6875 z M 51.09375,27.71875 L 51.03125,29.25 L 51.4375,29.25 L 51.46875,28.78125 L 54.40625,28.90625 L 54.375,29.375 L 54.8125,29.40625 L 54.875,27.875 L 54.46875,27.84375 L 54.4375,28.3125 L 51.5,28.1875 L 51.5,27.71875 L 51.09375,27.71875 z M 27.1875,28.21875 C 25.948751,28.33375 24.90625,28.965 24.90625,29.59375 C 24.90625,30.22375 25.9525,30.88625 27.1875,31 L 27.1875,28.21875 z M 27.875,28.21875 L 27.875,31 C 29.11625,30.8875 30.1875,30.225 30.1875,29.59375 C 30.1875,28.9625 29.11375,28.33 27.875,28.21875 z M 0.46875,29 L 0.03125,29.0625 L 0.25,30.5 L 0.625,30.46875 L 0.5625,29.96875 L 1.65625,29.8125 C 2.235,29.72875 2.745,29.63625 3.1875,29.5625 C 2.6587499,29.916251 1.89625,30.44125 1.46875,30.75 L 0.375,31.59375 L 0.53125,32.71875 L 0.9375,32.6875 L 0.875,32.1875 L 3.8125,31.8125 L 3.875,32.28125 L 4.28125,32.25 L 4.0625,30.78125 L 3.6875,30.84375 L 3.75,31.34375 L 2.5625,31.5 C 2.38875,31.522499 1.43125,31.665 0.90625,31.75 C 1.0175,31.666249 1.13,31.57875 1.25,31.5 C 1.89125,31.07125 2.07125,30.96625 2.625,30.5625 L 3.90625,29.59375 L 3.84375,29.0625 L 0.53125,29.5 L 0.46875,29 z M 50.96875,30.1875 L 50.5,32.90625 L 51.5,33.09375 L 51.59375,32.625 L 51,32.5 L 51.1875,31.3125 L 52.53125,31.53125 L 52.3125,32.875 L 52.71875,32.9375 L 52.9375,31.59375 L 54.09375,31.78125 L 53.90625,32.96875 L 53.40625,32.875 L 53.3125,33.34375 L 54.21875,33.5 L 54.6875,30.8125 L 54.28125,30.75 L 54.1875,31.21875 L 51.28125,30.71875 L 51.375,30.25 L 50.96875,30.1875 z M 35.0625,31 C 34.445002,31.672499 33.7925,32.3625 33.125,33.03125 C 32.461252,33.69625 31.79375,34.3225 31.125,34.9375 C 32.36625,34.863751 33.56875,34.74375 34.71875,34.59375 C 34.867502,33.442501 34.98875,32.2425 35.0625,31 z M 20.0625,31.03125 C 20.135001,32.26875 20.2575,33.44625 20.40625,34.59375 C 21.552499,34.742502 22.73125,34.865 23.96875,34.9375 C 23.302499,34.32375 22.63,33.69375 21.96875,33.03125 C 21.303751,32.366251 20.67625,31.69875 20.0625,31.03125 z M 4.375,32.9375 L 4,33.0625 L 4.15625,33.5625 L 1.28125,35.71875 L 1.46875,36.25 L 5.0625,36.28125 L 5.21875,36.75 L 5.59375,36.59375 L 5.15625,35.28125 L 4.8125,35.40625 L 4.9375,35.8125 L 4.125,35.8125 L 3.71875,34.59375 L 4.375,34.09375 L 4.5,34.53125 L 4.875,34.40625 L 4.375,32.9375 z M 13.59375,33.5625 C 11.99,37.014999 11.7775,39.9025 13.4375,41.5625 C 14.21875,42.344998 15.27125,42.71875 16.53125,42.71875 C 16.5825,42.598749 16.6525,42.4725 16.75,42.375 C 17.160001,41.96375 17.80875,41.96375 18.21875,42.375 C 18.255,42.41125 18.31375,42.46 18.34375,42.5 C 19.31125,42.284998 20.33375,41.9175 21.4375,41.40625 C 20.84875,39.512502 20.42375,37.31625 20.125,34.90625 C 17.7075,34.6075 15.49,34.15375 13.59375,33.5625 z M 41.5,33.5625 C 39.607501,34.151249 37.41,34.60625 35,34.90625 C 34.701249,37.322499 34.24625,39.50875 33.65625,41.40625 C 37.10625,43.009999 39.9975,43.2225 41.65625,41.5625 C 42.419999,40.798749 42.79625,39.78375 42.8125,38.5625 C 42.583752,38.537499 42.36375,38.42625 42.1875,38.25 C 41.777501,37.84 41.77625,37.1925 42.1875,36.78125 C 42.298749,36.669998 42.4225,36.5825 42.5625,36.53125 C 42.343751,35.60125 41.9875,34.61375 41.5,33.5625 z M 50.28125,33.78125 L 49.8125,35.15625 L 50.1875,35.28125 L 50.34375,34.8125 L 51.46875,35.21875 C 51.633749,35.276251 52.55625,35.5875 53.0625,35.75 C 52.926249,35.773749 52.79875,35.79875 52.65625,35.8125 C 51.889999,35.904999 51.675,35.92375 51,36.03125 L 49.40625,36.28125 L 49.21875,36.8125 L 52.375,37.9375 L 52.21875,38.40625 L 52.59375,38.53125 L 53.09375,37.15625 L 52.71875,37 L 52.5625,37.5 L 51.53125,37.125 C 50.977501,36.93625 50.46,36.76125 50.03125,36.625 C 50.662501,36.55 51.57375,36.425 52.09375,36.34375 L 53.46875,36.125 L 53.84375,35.03125 L 53.46875,34.90625 L 53.28125,35.34375 L 50.5,34.375 L 50.6875,33.90625 L 50.28125,33.78125 z M 3.375,34.8125 L 3.71875,35.8125 L 3.0625,35.8125 C 2.45,35.825001 2.0975,35.84875 1.875,35.875 C 2.1287501,35.726249 2.26875,35.6125 2.84375,35.21875 L 3.375,34.8125 z M 20.4375,34.9375 C 20.7575,37.28125 21.2275,39.385 21.84375,41.1875 C 23.555,40.35 25.3975,39.21 27.28125,37.78125 C 26.298749,37.003749 25.30625,36.1525 24.3125,35.25 C 22.975,35.183749 21.68,35.0825 20.4375,34.9375 z M 34.65625,34.9375 C 33.409999,35.084999 32.12375,35.18375 30.78125,35.25 C 29.786251,36.15375 28.79625,37.00375 27.8125,37.78125 C 29.700001,39.213748 31.53625,40.37875 33.25,41.21875 C 33.870001,39.412501 34.33375,37.2875 34.65625,34.9375 z M 24.78125,35.28125 C 25.710001,36.105001 26.64625,36.855 27.5625,37.5625 C 28.48125,36.855 29.3825,36.10625 30.3125,35.28125 C 29.403751,35.318752 28.50375,35.34375 27.5625,35.34375 C 26.6225,35.343749 25.69,35.31875 24.78125,35.28125 z M 5.78125,37.09375 L 5.4375,37.28125 L 5.65625,37.71875 L 4.78125,38.9375 C 4.3612498,38.498749 3.985,38.44 3.53125,38.6875 C 3.1899999,38.872499 3.0325,39.15125 3.03125,39.53125 C 3.0312499,39.835001 3.09875,40.03625 3.46875,40.71875 L 4.125,41.9375 L 4.46875,41.71875 L 4.25,41.3125 L 6.84375,39.90625 L 7.0625,40.3125 L 7.4375,40.125 L 6.71875,38.8125 L 6.375,39 L 6.59375,39.40625 L 5.4375,40.03125 L 5.09375,39.375 L 6.21875,37.90625 L 5.78125,37.09375 z M 27.5625,37.96875 C 25.6475,39.4625 23.755,40.70125 22,41.625 C 23.3075,45.203749 25.215,47.4375 27.5625,47.4375 C 28.65,47.437499 29.62125,46.9575 30.5,46.09375 C 30.4075,45.936251 30.375,45.75875 30.375,45.5625 C 30.375001,44.9825 30.825,44.5 31.40625,44.5 C 31.5125,44.5 31.6225,44.5025 31.71875,44.53125 C 32.2325,43.711249 32.68875,42.7325 33.09375,41.625 C 31.33625,40.701252 29.48125,39.465 27.5625,37.96875 z M 48.65625,38.0625 L 48.03125,39.0625 C 47.6575,39.672501 47.55875,39.93875 47.5625,40.34375 C 47.555,40.981251 47.915,41.59 48.53125,41.96875 C 49.0875,42.309998 49.67375,42.3675 50.1875,42.15625 C 50.594998,41.98625 50.805,41.76875 51.21875,41.09375 L 51.875,40.03125 L 51.53125,39.8125 L 51.25,40.25 L 48.75,38.6875 L 49,38.28125 L 48.65625,38.0625 z M 4.09375,39.125 C 4.1909375,39.122969 4.286875,39.135625 4.375,39.1875 C 4.5274999,39.276251 4.6225,39.3725 4.84375,39.78125 L 5.09375,40.21875 L 4,40.8125 L 3.75,40.40625 C 3.54,40.017499 3.5075,39.86125 3.5,39.71875 C 3.4824999,39.495 3.58625,39.31 3.8125,39.1875 C 3.9168751,39.13125 3.9965625,39.127031 4.09375,39.125 z M 48.46875,39.1875 L 50.96875,40.71875 L 50.8125,40.96875 C 50.553749,41.390002 50.4075,41.52 50.15625,41.625 C 49.77125,41.790001 49.31,41.7225 48.84375,41.4375 C 48.402498,41.166249 48.105,40.81375 48.03125,40.4375 C 47.969999,40.115002 48.03875,39.85375 48.3125,39.40625 L 48.46875,39.1875 z M 8,41.6875 C 7.7124997,41.697499 7.49875,41.8075 7,42.21875 L 5.59375,43.375 L 5.28125,43 L 4.96875,43.28125 L 5.90625,44.40625 L 6.21875,44.125 L 5.90625,43.75 L 7.28125,42.59375 C 7.7212502,42.229999 7.7975,42.2025 7.9375,42.15625 C 8.22,42.07 8.535,42.2 8.78125,42.5 C 8.9987501,42.763749 9.0575,43.03125 8.96875,43.28125 C 8.9099997,43.448751 8.8975,43.47125 8.34375,43.9375 L 6.96875,45.0625 L 6.65625,44.6875 L 6.34375,44.9375 L 7.34375,46.15625 L 7.65625,45.875 L 7.34375,45.5 L 8.71875,44.375 C 9.2462497,43.94 9.345,43.8175 9.4375,43.59375 C 9.5912498,43.181249 9.4825,42.68375 9.125,42.25 C 8.8112503,41.868749 8.39,41.67125 8,41.6875 z M 46.375,42.4375 C 45.92125,42.426875 45.49375,42.58625 45.15625,42.96875 C 44.486251,43.726251 44.6175,44.74875 45.5,45.53125 C 46.382502,46.313749 47.42375,46.35125 48.09375,45.59375 C 48.753751,44.84625 48.61,43.7925 47.75,43.03125 C 47.297501,42.630001 46.82875,42.448125 46.375,42.4375 z M 46.0625,42.9375 C 46.436328,42.89364 46.874219,43.083594 47.34375,43.5 C 48.055,44.13 48.22875,44.805 47.78125,45.3125 C 47.3325,45.818751 46.635,45.74 45.90625,45.09375 C 45.1775,44.448748 45.02125,43.7575 45.46875,43.25 C 45.638906,43.057813 45.838203,42.963816 46.0625,42.9375 z M 11.0625,44.75 C 10.965547,44.746602 10.879687,44.759062 10.78125,44.78125 C 10.48875,44.847499 10.26125,44.9925 9.96875,45.3125 L 10.34375,45.625 C 10.815,45.15875 11.23875,45.09375 11.625,45.4375 C 12.10375,45.861249 12,46.57375 11.375,47.28125 C 10.72,48.021248 10.0625,48.19375 9.5625,47.75 C 9.1862496,47.4175 9.17125,47.045 9.5,46.59375 L 9.15625,46.28125 L 8.375,47.15625 L 8.71875,47.46875 L 8.90625,47.25 C 8.9287496,47.603748 9.07,47.8825 9.34375,48.125 C 10.06125,48.76 11.04625,48.5875 11.84375,47.6875 C 12.645,46.78 12.66875,45.80125 11.90625,45.125 C 11.637187,44.885938 11.353359,44.760195 11.0625,44.75 z M 42.1875,46 L 41.21875,46.65625 C 40.630001,47.062499 40.4125,47.28625 40.25,47.65625 C 39.983749,48.236249 40.09125,48.9025 40.5,49.5 C 40.869999,50.038748 41.35125,50.32875 41.90625,50.34375 C 42.346251,50.355 42.66125,50.26125 43.3125,49.8125 L 44.3125,49.09375 L 44.09375,48.78125 L 43.6875,49.03125 L 42.03125,46.59375 L 42.4375,46.34375 L 42.1875,46 z M 43.96875,46.21875 C 43.834375,46.21875 43.69625,46.271875 43.59375,46.375 C 43.38875,46.58 43.389998,46.888749 43.59375,47.09375 C 43.79875,47.29875 44.137501,47.298749 44.34375,47.09375 C 44.54875,46.88875 44.548751,46.580001 44.34375,46.375 C 44.24125,46.271875 44.103125,46.21875 43.96875,46.21875 z M 41.5625,46.9375 L 43.21875,49.375 L 42.96875,49.53125 C 42.560001,49.811249 42.3975,49.8825 42.125,49.875 C 41.705001,49.867501 41.27875,49.60875 40.96875,49.15625 C 40.67625,48.73 40.57125,48.27875 40.65625,47.90625 C 40.7325,47.587499 40.91125,47.39125 41.34375,47.09375 L 41.5625,46.9375 z M 13.28125,48.09375 C 13.146875,48.09375 13.00875,48.1475 12.90625,48.25 C 12.70125,48.455 12.7025,48.794999 12.90625,49 C 13.11125,49.20625 13.45125,49.206249 13.65625,49 C 13.86125,48.795 13.86125,48.455001 13.65625,48.25 C 13.55375,48.1475 13.415625,48.09375 13.28125,48.09375 z M 16.125,48.28125 C 15.451523,48.253008 14.800938,48.6775 14.40625,49.46875 C 13.88,50.525001 14.1275,51.54875 15.03125,52 C 15.9225,52.44625 16.89375,52.02875 17.40625,51 C 17.944999,49.916249 17.6925,48.92375 16.78125,48.46875 C 16.554687,48.355625 16.349492,48.290664 16.125,48.28125 z M 16.15625,48.75 C 16.304844,48.748047 16.4425,48.768438 16.59375,48.84375 C 17.20625,49.150001 17.32375,49.82 16.875,50.71875 C 16.45,51.57 15.825,51.89625 15.21875,51.59375 C 14.61375,51.291249 14.535,50.62125 14.96875,49.75 C 15.295,49.096561 15.710469,48.755859 16.15625,48.75 z M 37.65625,48.875 C 37.431269,48.872207 37.202188,48.929375 36.96875,49.03125 C 36.041251,49.434999 35.7175,50.41875 36.1875,51.5 C 36.657499,52.582501 37.60375,53.02875 38.53125,52.625 C 39.44375,52.227499 39.73875,51.2425 39.28125,50.1875 C 38.919376,49.355936 38.331192,48.883378 37.65625,48.875 z M 37.59375,49.3125 C 38.039121,49.340039 38.41875,49.715312 38.71875,50.40625 C 39.0975,51.27875 38.96375,51.98 38.34375,52.25 C 37.722502,52.519999 37.1375,52.14375 36.75,51.25 C 36.361249,50.356251 36.50375,49.67625 37.125,49.40625 C 37.281562,49.337812 37.445293,49.30332 37.59375,49.3125 z M 20.1875,50.125 C 20.094805,50.134023 20.003438,50.129375 19.90625,50.15625 C 19.28875,50.31375 18.83,50.80625 18.625,51.5 C 18.43875,52.127501 18.5075,52.715 18.84375,53.15625 C 19.11375,53.506251 19.3975,53.68125 20.15625,53.90625 L 21.34375,54.25 L 21.46875,53.84375 L 21,53.71875 L 21.84375,50.875 L 22.3125,51.03125 L 22.40625,50.625 L 21.28125,50.28125 C 20.766563,50.129374 20.465586,50.09793 20.1875,50.125 z M 33.28125,50.34375 C 33.164912,50.350554 33.060781,50.374375 32.9375,50.40625 C 32.473748,50.525001 32.1475,50.78 32,51.15625 C 31.892499,51.436252 31.9,51.6725 32,52.09375 L 32.46875,51.96875 C 32.347501,51.316251 32.53,50.9425 33.03125,50.8125 C 33.650001,50.652501 34.17,51.11875 34.40625,52.03125 C 34.652501,52.99 34.43,53.61375 33.78125,53.78125 C 33.296249,53.9075 32.9725,53.71125 32.78125,53.1875 L 32.34375,53.3125 L 32.625,54.4375 L 33.0625,54.34375 L 33,54.0625 C 33.30625,54.242501 33.615,54.27875 33.96875,54.1875 C 34.896251,53.947498 35.3,53.04 35,51.875 C 34.736406,50.850157 34.095615,50.296121 33.28125,50.34375 z M 20.4375,50.53125 C 20.604844,50.532344 20.779375,50.581875 21.03125,50.65625 L 21.28125,50.71875 L 20.4375,53.53125 L 20.15625,53.46875 C 19.682501,53.32875 19.54125,53.2475 19.375,53.03125 C 19.11625,52.700002 19.0325,52.2125 19.1875,51.6875 C 19.335001,51.190002 19.625,50.825 19.96875,50.65625 C 20.11625,50.585 20.270156,50.530156 20.4375,50.53125 z M 23.84375,50.84375 L 23.5,54.1875 L 23.03125,54.15625 L 22.96875,54.5625 L 24.4375,54.71875 L 24.46875,54.3125 L 23.96875,54.25 L 24.09375,53.15625 C 24.142499,52.572501 24.16,52.07375 24.1875,51.625 C 24.41375,52.219999 24.76375,53.07625 24.96875,53.5625 L 25.53125,54.8125 L 26.65625,54.90625 L 26.71875,54.5 L 26.21875,54.46875 L 26.5,51.53125 L 27,51.5625 L 27.03125,51.15625 L 25.5625,51.03125 L 25.53125,51.40625 L 26.03125,51.46875 L 25.9375,52.65625 C 25.921249,52.83125 25.8175,53.81125 25.78125,54.34375 C 25.725,54.216251 25.67375,54.0725 25.625,53.9375 C 25.351249,53.215001 25.29875,53.00375 25.03125,52.375 L 24.375,50.90625 L 23.84375,50.84375 z M 30.75,50.90625 L 28,51.125 L 28.0625,52.15625 L 28.53125,52.125 L 28.5,51.5 L 29.71875,51.40625 L 29.8125,52.75 L 28.46875,52.875 L 28.5,53.28125 L 29.84375,53.1875 L 29.9375,54.34375 L 28.78125,54.4375 L 28.71875,53.9375 L 28.25,53.96875 L 28.3125,54.90625 L 31.03125,54.6875 L 31,54.28125 L 30.53125,54.3125 L 30.28125,51.375 L 30.78125,51.34375 L 30.75,50.90625 z" transform="translate(233.268, 504.902)" id="path2608" style="opacity:0.85000598;fill:#91acbc;fill-opacity:1;fill-rule:nonzero;stroke:none"/>
  </g>
</svg>